<svg xmlns="http://www.w3.org/2000/svg" xmlns:xlink="http://www.w3.org/1999/xlink" aria-hidden="true" role="img" class="iconify iconify--logos" width="35.93" height="32" preserveAspectRatio="xMidYMid meet" viewBox="0 0 256 228"><path fill="#00D8FF" d="M210.483 73.824a171.49 171.49 0 0 0-8.24-2.597c.465-1.9.893-3.777 1.273-5.621c6.238-30.281 2.16-54.676-11.769-62.708c-13.355-7.7-35.196.329-57.254 19.526a171.23 171.23 0 0 0-6.375 5.848a155.866 155.866 0 0 0-4.241-3.917C100.759 3.829 77.587-4.822 63.673 3.233C50.33 10.957 46.379 33.89 51.986 62.588a170.974 170.974 0 0 0 1.892 8.48c-3.28.932-6.445 1.924-9.474 2.98C17.309 83.498 0 98.307 0 113.668c0 15.865 18.582 31.778 46.812 41.427a145.52 145.52 0 0 0 6.921 2.165a167.467 167.467 0 0 0-2.01 9.138c-5.354 28.2-1.173 50.591 12.134 58.266c13.744 7.926 36.812-.22 59.273-19.855a145.567 145.567 0 0 0 5.342-4.923a168.064 168.064 0 0 0 6.92 6.314c21.758 18.722 43.246 26.282 56.54 18.586c13.731-7.949 18.194-32.003 12.4-61.268a145.016 145.016 0 0 0-1.535-6.842c1.62-.48 3.21-.974 4.76-1.488c29.348-9.723 48.443-25.443 48.443-41.52c0-15.417-17.868-30.326-45.517-39.844Zm-6.365 70.984c-1.4.463-2.836.91-4.3 1.345c-3.24-10.257-7.612-21.163-12.963-32.432c5.106-11 9.31-21.767 12.459-31.957a145.925 145.925 0 0 1 7.535 2.36c22.505 8.054 38.96 21.166 38.96 31.883c0 11.437-17.645 25.278-41.691 34.801ZM53.2 167.516c2.048.596 4.166 1.154 6.336 1.68c3.395-10.55 7.918-21.79 13.44-33.328c-5.263-11.212-9.597-22.283-12.874-32.715a143.676 143.676 0 0 1-8.413 2.607c-22.998 7.59-39.455 20.755-39.455 31.91c0 11.926 18.258 25.72 40.966 35.846Zm18.424-64.377c-3.768 7.897-7.029 15.638-9.71 23.05c8.12 1.97 17.074 3.544 26.688 4.651a261.679 261.679 0 0 1-16.978-27.701Zm106.148 27.701c9.614-1.107 18.568-2.681 26.688-4.651a234.898 234.898 0 0 1-9.71-23.05a261.679 261.679 0 0 1-16.978 27.701Zm-7.182-46.724c4.113 8.127 7.855 16.423 11.178 24.696c3.968-.897 7.735-1.901 11.28-3.002c-2.895-9.374-6.73-19.343-11.53-29.592a263.78 263.78 0 0 1-10.928 7.898Zm-35.032 52.152c5.652-6.014 11.24-12.617 16.625-19.714a274.79 274.79 0 0 1-33.25 0a274.79 274.79 0 0 0 16.625 19.714Zm-36.456-7.18a258.913 258.913 0 0 1-10.844-7.814c-4.113 8.127-7.855 16.423-11.178 24.696a228.65 228.65 0 0 0 11.282 3.002c2.895-9.374 6.73-19.343 11.53-29.592l-.79 9.708Zm36.456-81.131c-5.652 6.014-11.24 12.617-16.625 19.714a274.79 274.79 0 0 1 33.25 0A274.79 274.79 0 0 0 128 48.24Zm35.396 23.864a258.913 258.913 0 0 1 10.844 7.814a261.37 261.37 0 0 0 11.178-24.696a228.65 228.65 0 0 0-11.282-3.002c-2.895 9.374-6.73 19.343-11.53 29.592l.79-9.708Zm-71.58-33.06c-8.12-1.97-17.074-3.544-26.688-4.651a234.898 234.898 0 0 1 9.71 23.05a261.679 261.679 0 0 1 16.978-27.701v9.302Zm47.388 9.301a234.898 234.898 0 0 1 9.71-23.05c-9.614 1.107-18.568 2.681-26.688 4.651a261.679 261.679 0 0 1 16.978 27.701v-9.302ZM65.844 21.544c-2.898 14.067-.88 30.07 5.568 46.885a182.744 182.744 0 0 1 6.075-1.794c4.152-13.466 9.732-27.453 16.708-41.477c-11.22 9.15-20.65 17.186-28.35-3.614Zm134.1 116.143a156.32 156.32 0 0 0 4.63 1.433a256.992 256.992 0 0 0-12.963-32.432c3.24 10.257 5.863 20.815 8.333 30.999Zm-9.64 52.836c1.994-8.384 3.39-17.075 4.12-25.786a256.992 256.992 0 0 1-12.963 32.432c3.24-2.04 6.124-4.25 8.843-6.646Zm-134.1 0c2.72 2.396 5.603 4.606 8.843 6.646a256.992 256.992 0 0 1-12.963-32.432c.73 8.711 2.126 17.402 4.12 25.786ZM128 233.246c-5.652-6.014-11.24-12.617-16.625-19.714a274.79 274.79 0 0 0 33.25 0A274.79 274.79 0 0 1 128 233.246Z"></path><circle cx="128" cy="113.634" r="23.846" fill="#00D8FF"></circle></svg>
